<svg width="18" height="18" viewBox="0 0 18 18" fill="none" xmlns="http://www.w3.org/2000/svg">
<path d="M14.2222 2.15655H11.4204C11.2806 0.94457 10.2494 0 9.00055 0C7.75171 0 6.72069 0.944533 6.58092 2.15655H3.77892C2.64503 2.15655 1.72266 3.07918 1.72266 4.21303V4.31855C1.72266 5.18502 2.26218 5.92666 3.02221 6.22884V15.9435C3.02221 17.0774 3.94469 18 5.07851 18H12.9227C14.0565 18 14.9789 17.0773 14.9789 15.9435V6.22888C15.7389 5.92666 16.2785 5.18502 16.2785 4.31858V4.21307C16.2785 3.07918 15.356 2.15655 14.2222 2.15655ZM9.00055 0.975277C9.71085 0.975277 10.3037 1.48439 10.4349 2.15655H7.56646C7.69761 1.48435 8.29052 0.975277 9.00055 0.975277ZM14.0037 15.9435C14.0037 16.5397 13.5186 17.0248 12.9226 17.0248H5.07847C4.4825 17.0248 3.99745 16.5396 3.99745 15.9435V6.37503H14.0037V15.9435ZM15.3032 4.31855C15.3032 4.9147 14.8182 5.39979 14.2222 5.39979H3.77892C3.18294 5.39979 2.6979 4.9147 2.6979 4.31855V4.21303C2.6979 3.61687 3.18294 3.13179 3.77892 3.13179H14.2222C14.8182 3.13179 15.3032 3.61687 15.3032 4.21303V4.31855H15.3032Z" fill="black"/>
<path d="M6.38606 15.7775C6.65537 15.7775 6.87368 15.5591 6.87368 15.2899V9.79945C6.87368 9.53022 6.65533 9.3118 6.38606 9.3118C6.11678 9.3118 5.89844 9.53022 5.89844 9.79945V15.2899C5.8984 15.5592 6.11675 15.7775 6.38606 15.7775Z" fill="black"/>
<path d="M9.00129 15.7775C9.2706 15.7775 9.48895 15.5591 9.48895 15.2899V9.79945C9.48895 9.53022 9.27053 9.3118 9.00129 9.3118C8.73202 9.3118 8.51367 9.53022 8.51367 9.79945V15.2899C8.51367 15.5592 8.73198 15.7775 9.00129 15.7775Z" fill="black"/>
<path d="M11.6146 15.7775C11.8839 15.7775 12.1022 15.5591 12.1022 15.2899V9.79945C12.1022 9.53022 11.8839 9.3118 11.6146 9.3118C11.3453 9.3118 11.127 9.53022 11.127 9.79945V15.2899C11.1269 15.5592 11.3453 15.7775 11.6146 15.7775Z" fill="black"/>
</svg>
