<svg width="27" height="27" viewBox="0 0 27 27" fill="none" xmlns="http://www.w3.org/2000/svg">
<g clip-path="url(#clip0)">
<path d="M26.3999 23.4636L20.8343 17.8983C22.1756 15.9621 22.8465 13.8037 22.8465 11.4242C22.8465 9.8773 22.5462 8.39791 21.9456 6.98631C21.3454 5.57449 20.534 4.3576 19.5118 3.33536C18.4896 2.31312 17.2729 1.50173 15.8613 0.901472C14.4493 0.301041 12.97 0.000854492 11.4232 0.000854492C9.87644 0.000854492 8.39705 0.301041 6.98546 0.901472C5.57363 1.50173 4.35675 2.31312 3.33451 3.33536C2.31216 4.3576 1.50088 5.57472 0.900561 6.98631C0.300187 8.39808 0 9.8773 0 11.4242C0 12.9709 0.300187 14.4498 0.900561 15.8618C1.50082 17.2734 2.31216 18.4901 3.33451 19.5123C4.35675 20.5349 5.57386 21.346 6.98546 21.9466C8.39722 22.5469 9.87644 22.847 11.4232 22.847C13.8033 22.847 15.9613 22.176 17.8976 20.8349L23.4631 26.384C23.8525 26.795 24.3387 27.0006 24.9233 27.0006C25.4858 27.0006 25.9728 26.795 26.3835 26.384C26.7944 25.9731 27.0001 25.4863 27.0001 24.9238C27.0002 24.3508 26.8001 23.8638 26.3999 23.4636ZM16.5588 16.5592C15.1363 17.9818 13.4246 18.6931 11.4232 18.6931C9.42213 18.6931 7.7104 17.9817 6.28784 16.5592C4.86528 15.1367 4.15403 13.4252 4.15403 11.4238C4.15403 9.42276 4.86545 7.71075 6.28784 6.28847C7.71012 4.86585 9.42213 4.15465 11.4232 4.15465C13.4244 4.15465 15.1361 4.86613 16.5588 6.28847C17.9814 7.71075 18.6927 9.42276 18.6927 11.4238C18.6927 13.4252 17.9812 15.1367 16.5588 16.5592Z" fill="#3CBB6E"/>
</g>
<defs>
<clipPath id="clip0">
<rect width="27" height="27" fill="white"/>
</clipPath>
</defs>
</svg>
